<svg xmlns="http://www.w3.org/2000/svg" width="225" height="225"><path d="M182.738 24.176C207.18 44.986 221.893 71.913 225 104c2.214 28.863-6.741 58.262-25.542 80.342-21.2 24.096-48.504 38.36-80.654 40.826C89.799 226.762 62.393 217.186 40 199l-2.203-1.738C32.052 192.523 27.525 186.886 23 181l-1.844-2.367C3.248 154.457-3.21 124.008 1.125 94.5c5.006-30.14 21.464-56.534 46.313-74.438 41.317-26.853 96.248-27.897 135.3 4.114z" fill="#E04F5F"/><path d="M78.32 101.619l2.672-.026 2.924.019 3.085-.016c3.374-.013 6.747-.005 10.12.006a3922.255 3922.255 0 0121.746.007c6.297.017 12.593.007 18.889-.01 4.834-.012 9.668-.008 14.502 0 2.322.002 4.644 0 6.965-.008 3.244-.007 6.488.004 9.732.02l2.917-.018 2.681.026 2.323.003c2.742.488 4.122 1.465 6.124 3.378.531 3.215.531 3.215.5 6.938l.031 3.714C183 119 183 119 181.595 121.178c-4.014 2.819-7.847 2.372-12.64 2.324l-3.09.016a1119.6 1119.6 0 01-10.119-.022c-2.341 0-4.682.002-7.024.005-4.906 0-9.813-.012-14.72-.034-6.297-.029-12.594-.026-18.892-.013-4.834.007-9.668-.001-14.502-.014a1919.01 1919.01 0 00-6.967 0c-3.242.002-6.483-.014-9.725-.036l-2.924.014-2.672-.03-2.322-.008c-2.57-.489-3.452-1.295-4.998-3.38a54.97 54.97 0 01-.375-7.5l-.035-2.05c.029-4.936.029-4.936 1.665-7.143 2.184-1.636 3.354-1.684 6.065-1.688z" fill="#FDF6F7"/><path d="M73 134c1.909-.378 1.909-.378 4.282-.381l2.724-.026 2.996.019 3.149-.016c3.448-.013 6.896-.005 10.345.006a4091.952 4091.952 0 0122.205.007c6.435.017 12.869.007 19.303-.01 4.935-.012 9.87-.008 14.806 0 2.373.002 4.745 0 7.118-.008 3.314-.007 6.627.004 9.94.02l2.99-.018 2.733.026 2.374.003c2.591.481 3.475 1.28 5.035 3.378.398 3.25.398 3.25.375 7l.023 3.75c-.398 3.25-.398 3.25-1.65 4.93-2.197 1.659-3.377 1.697-6.113 1.701l-2.702.026-2.956-.019-3.12.016c-3.41.013-6.821.005-10.232-.006a4004.649 4004.649 0 01-21.975-.007c-6.366-.017-12.731-.007-19.097.01-4.885.012-9.77.008-14.654 0-2.348-.002-4.695 0-7.043.008-3.278.007-6.555-.004-9.833-.02l-2.956.018-2.702-.026-2.349-.003c-2.578-.483-3.463-1.291-5.016-3.378-.363-3.25-.363-3.25-.313-7l.012-3.75C71 137 71 137 73 134zM78.365 70.619l2.702-.026 2.956.019 3.12-.016c3.41-.013 6.821-.005 10.232.006a4004.649 4004.649 0 0121.975.007c6.366.017 12.731.007 19.097-.01 4.885-.012 9.77-.008 14.654 0 2.348.002 4.695 0 7.043-.008 3.278-.007 6.555.004 9.833.02l2.956-.018 2.702.026 2.349.003c2.578.483 3.461 1.292 5.016 3.378.398 3.25.398 3.25.375 7l.023 3.75C183 88 183 88 181.751 89.68c-2.21 1.666-3.41 1.697-6.16 1.701l-2.732.026-2.99-.019-3.154.016c-3.448.013-6.896.005-10.344-.006a4087.897 4087.897 0 01-22.203-.007 3543.18 3543.18 0 00-19.306.01c-4.935.012-9.87.008-14.806 0-2.373-.002-4.747 0-7.12.008-3.312.007-6.623-.004-9.934-.02l-2.996.018-2.724-.026-2.373-.003L73 91c-2.445-3.668-2.299-5.634-2.312-10l-.051-3.75C71 74 71 74 72.25 72.32c2.198-1.658 3.379-1.697 6.115-1.701z" fill="#FEFCFD"/><path d="M52.563 101.688l3.44.011C59 102 59 102 62 104a69.93 69.93 0 01.375 8.5l.035 2.379c-.012 2.277-.012 2.277-.41 6.121-3.532 2.355-5.247 2.327-9.438 2.375l-3.433.086C46 123 46 123 43.62 121.418c-2.193-3.271-2.154-5.568-2.121-9.48l-.031-3.723C42 105 42 105 43.62 103.085c3.111-1.42 5.53-1.448 8.941-1.397z" fill="#FDF6F6"/><path d="M52.563 70.688l2.076-.01c5.094.055 5.094.055 7.361 2.322.199 2.71.278 5.293.25 8l.023 2.234c-.02 5.513-.02 5.513-2.273 7.766-2.528.226-4.91.324-7.438.313l-2.064.048c-2.786.003-4.983-.075-7.447-1.443-1.624-2.963-1.447-5.57-1.426-8.918l-.023-3.75C42 74 42 74 43.05 72.082c3.047-1.692 6.123-1.475 9.511-1.394z" fill="#FEFAFA"/><path d="M52.563 133.688l2.076-.01c5.094.055 5.094.055 7.361 2.322a90.32 90.32 0 01.313 8l.048 2.234c.002 2.141.002 2.141-.361 5.766-3.668 2.445-5.634 2.299-10 2.313l-3.75.05C45 154 45 154 43.086 152.918c-1.674-2.957-1.482-5.552-1.461-8.918l-.023-3.75C42 137 42 137 43.05 135.082c3.047-1.692 6.123-1.475 9.511-1.394z" fill="#FEFAFB"/></svg>